ffmpeg version 2.4.3-1ubuntu1~trusty6 Copyright (c) 2000-2014 the FFmpeg developers
  built on Nov 22 2014 17:07:19 with gcc 4.8 (Ubuntu 4.8.2-19ubuntu1)
  configuration: --prefix=/usr --extra-version='1ubuntu1~trusty6' --build-suffix=-ffmpeg --toolchain=hardened --extra-cflags= --extra-cxxflags= --libdir=/usr/lib/x86_64-linux-gnu --shlibdir=/usr/lib/x86_64-linux-gnu --incdir=/usr/include/x86_64-linux-gnu --enable-gpl --enable-shared --disable-stripping --enable-avresample --enable-avisynth --enable-fontconfig --enable-gnutls --enable-ladspa --enable-libass --enable-libbluray --enable-libbs2b --enable-libcaca --enable-libcdio --enable-libflite --enable-libfreetype --enable-libfribidi --enable-libgme --enable-libgsm --enable-libmodplug --enable-libmp3lame --enable-libopenjpeg --enable-libopus --enable-libpulse --enable-librtmp --enable-libschroedinger --enable-libshine --enable-libspeex --enable-libssh --enable-libtheora --enable-libtwolame --enable-libvorbis --enable-libvpx --enable-libwavpack --enable-libwebp --enable-opengl --enable-x11grab --enable-libxvid --enable-libx265 --enable-libdc1394 --enable-libiec61883 --enable-libzvbi --enable-libzmq --enable-frei0r --enable-libx264 --enable-libsoxr --enable-openal --enable-libopencv
  libavutil      54.  7.100 / 54.  7.100
  libavcodec     56.  1.100 / 56.  1.100
  libavformat    56.  4.101 / 56.  4.101
  libavdevice    56.  0.100 / 56.  0.100
  libavfilter     5.  1.100 /  5.  1.100
  libavresample   2.  1.  0 /  2.  1.  0
  libswscale      3.  0.100 /  3.  0.100
  libswresample   1.  1.100 /  1.  1.100
  libpostproc    53.  0.100 / 53.  0.100
Input #0, image2, from 'SE_lcs_%04d.tif':
  Duration: 00:00:14.50, start: 0.000000, bitrate: N/A
    Stream #0:0: Video: tiff, rgba, 496x435 [SAR 1:1 DAR 496:435], 10 fps, 10 tbr, 10 tbn, 10 tbc
[libx264 @ 0x10ce3a0] using SAR=3865/3867
[libx264 @ 0x10ce3a0] using cpu capabilities: MMX2 SSE2Fast SSSE3 SSE4.2 AVX AVX2 FMA3 LZCNT BMI2
[libx264 @ 0x10ce3a0] profile High, level 4.0
[libx264 @ 0x10ce3a0] 264 - core 142 r2389 956c8d8 - H.264/MPEG-4 AVC codec - Copyleft 2003-2014 - http://www.videolan.org/x264.html - options: cabac=1 ref=3 deblock=1:0:0 analyse=0x3:0x113 me=hex subme=7 psy=1 psy_rd=1.00:0.00 mixed_ref=1 me_range=16 chroma_me=1 trellis=1 8x8dct=1 cqm=0 deadzone=21,11 fast_pskip=1 chroma_qp_offset=-2 threads=6 lookahead_threads=1 sliced_threads=0 nr=0 decimate=1 interlaced=0 bluray_compat=0 constrained_intra=0 bframes=3 b_pyramid=2 b_adapt=1 b_bias=0 direct=1 weightb=1 open_gop=0 weightp=2 keyint=250 keyint_min=10 scenecut=40 intra_refresh=0 rc_lookahead=40 rc=crf mbtree=1 crf=23.0 qcomp=0.60 qpmin=0 qpmax=69 qpstep=4 ip_ratio=1.40 aq=1:1.00
Output #0, mp4, to 'SE_LCS.mp4':
  Metadata:
    encoder         : Lavf56.4.101
    Stream #0:0: Video: h264 (libx264) ([33][0][0][0] / 0x0021), yuv420p, 1280x1122 [SAR 5797:5800 DAR 496:435], q=-1--1, 10 fps, 10240 tbn, 10 tbc
    Metadata:
      encoder         : Lavc56.1.100 libx264
Stream mapping:
  Stream #0:0 -> #0:0 (tiff (native) -> h264 (libx264))
Press [q] to stop, [?] for help
frame=   47 fps=0.0 q=0.0 size=       0kB time=00:00:00.00 bitrate=N/A    frame=   66 fps= 60 q=25.0 size=     343kB time=00:00:01.40 bitrate=2004.3kbits/s    frame=   90 fps= 55 q=25.0 size=     554kB time=00:00:03.80 bitrate=1194.9kbits/s    frame=  118 fps= 55 q=25.0 size=     714kB time=00:00:06.60 bitrate= 885.8kbits/s    frame=  143 fps= 54 q=25.0 size=     840kB time=00:00:09.10 bitrate= 756.4kbits/s    frame=  145 fps= 42 q=-1.0 Lsize=    1128kB time=00:00:14.30 bitrate= 646.1kbits/s    
video:1125kB audio:0kB subtitle:0kB other streams:0kB global headers:0kB muxing overhead: 0.226762%
[libx264 @ 0x10ce3a0] frame I:1     Avg QP:18.40  size:116207
[libx264 @ 0x10ce3a0] frame P:37    Avg QP:19.37  size: 19827
[libx264 @ 0x10ce3a0] frame B:107   Avg QP:23.48  size:  2821
[libx264 @ 0x10ce3a0] consecutive B-frames:  0.7%  1.4%  4.1% 93.8%
[libx264 @ 0x10ce3a0] mb I  I16..4: 20.9% 56.3% 22.8%
[libx264 @ 0x10ce3a0] mb P  I16..4:  1.8%  3.8%  0.4%  P16..4: 24.8% 10.1%  5.4%  0.0%  0.0%    skip:53.7%
[libx264 @ 0x10ce3a0] mb B  I16..4:  0.3%  0.4%  0.0%  B16..8: 18.7%  1.2%  0.3%  direct: 1.3%  skip:77.8%  L0:40.4% L1:57.3% BI: 2.3%
[libx264 @ 0x10ce3a0] 8x8 transform intra:59.5% inter:75.3%
[libx264 @ 0x10ce3a0] coded y,uvDC,uvAC intra: 27.3% 61.0% 35.6% inter: 6.3% 12.1% 2.5%
[libx264 @ 0x10ce3a0] i16 v,h,dc,p: 48% 24%  8% 20%
[libx264 @ 0x10ce3a0] i8 v,h,dc,ddl,ddr,vr,hd,vl,hu: 24% 15% 36%  4%  5%  5%  4%  4%  3%
[libx264 @ 0x10ce3a0] i4 v,h,dc,ddl,ddr,vr,hd,vl,hu: 36% 26% 16%  4%  5%  4%  3%  4%  2%
[libx264 @ 0x10ce3a0] i8c dc,h,v,p: 52% 18% 21% 10%
[libx264 @ 0x10ce3a0] Weighted P-Frames: Y:2.7% UV:2.7%
[libx264 @ 0x10ce3a0] ref P L0: 63.3% 20.1% 11.7%  4.9%  0.0%
[libx264 @ 0x10ce3a0] ref B L0: 76.8% 21.2%  2.0%
[libx264 @ 0x10ce3a0] ref B L1: 97.5%  2.5%
[libx264 @ 0x10ce3a0] kb/s:635.38
